<svg xmlns="http://www.w3.org/2000/svg" viewBox="0 0 128 128">
  <!-- Blob shadow -->
  <path d="M22 30c10-12 30-18 44-14s28 16 34 30c6 15 1 34-12 44s-36 12-52 6c-16-6-26-24-24-40 1-9 5-18 10-26z" fill="#9ca3af" opacity="0.35"/>
  <!-- Rounded square app tile -->
  <rect x="24" y="24" width="80" height="80" rx="20" fill="#0b0b0f"/>
  <!-- Film border -->
  <rect x="34" y="40" width="60" height="48" rx="6" fill="none" stroke="#ffffff" stroke-width="3"/>
  <!-- Film sprocket holes -->
  <g fill="#ffffff">
    <rect x="38" y="40" width="6" height="6" rx="1"/>
    <rect x="48" y="40" width="6" height="6" rx="1"/>
    <rect x="58" y="40" width="6" height="6" rx="1"/>
    <rect x="68" y="40" width="6" height="6" rx="1"/>
    <rect x="78" y="40" width="6" height="6" rx="1"/>

    <rect x="38" y="82" width="6" height="6" rx="1"/>
    <rect x="48" y="82" width="6" height="6" rx="1"/>
    <rect x="58" y="82" width="6" height="6" rx="1"/>
    <rect x="68" y="82" width="6" height="6" rx="1"/>
    <rect x="78" y="82" width="6" height="6" rx="1"/>
  </g>
  <!-- Camera glyph -->
  <g stroke="#ffffff" stroke-width="3" stroke-linecap="round" stroke-linejoin="round" fill="none">
    <rect x="44" y="56" width="30" height="18" rx="4"/>
    <path d="M74 58l12-6v20l-12-6"/>
    <circle cx="54" cy="65" r="4" fill="#ffffff"/>
  </g>
</svg>